<?xml version="1.0" encoding="utf-8"?>
<!-- Generator: Adobe Illustrator 16.0.0, SVG Export Plug-In . SVG Version: 6.00 Build 0)  -->
<!DOCTYPE svg PUBLIC "-//W3C//DTD SVG 1.1//EN" "http://www.w3.org/Graphics/SVG/1.1/DTD/svg11.dtd">
<svg version="1.1" id="Layer_1" xmlns="http://www.w3.org/2000/svg" xmlns:xlink="http://www.w3.org/1999/xlink" x="0px" y="0px"
	 width="202.383px" height="202.205px" viewBox="0 0 202.383 202.205" enable-background="new 0 0 202.383 202.205"
	 xml:space="preserve">
<path fill-rule="evenodd" clip-rule="evenodd" fill="#FFFFFF" d="M104.39,202.164C49.441,203.712,2.548,161.414,0.093,104.44
	C-2.282,49.343,41.107,2.394,98.128,0.083c54.938-2.227,102.209,40.754,104.192,97.595
	C204.238,152.632,161.714,200.03,104.39,202.164z M159.377,100.949c0.035,0,0.071,0,0.107,0c0-7.333,0.099-14.668-0.02-21.999
	c-0.309-19.052-13.247-34.387-32.212-35.713c-17.244-1.206-34.693-1.121-51.951-0.019C57.941,44.328,44.9,57.072,43.662,74.44
	c-1.253,17.565-1.279,35.354-0.071,52.922c1.216,17.677,14.101,30.273,31.917,31.463c17.083,1.141,34.362,1.159,51.443,0.009
	c18.304-1.234,30.955-14.813,32.32-32.896C159.896,117.653,159.377,109.281,159.377,100.949z"/>
<path fill-rule="evenodd" clip-rule="evenodd" fill="#FFFFFF" d="M147.65,101.309c0.004,6.993,0.067,13.986-0.01,20.979
	c-0.166,15.141-10.009,25.053-25.031,25.134c-14.318,0.078-28.639,0.094-42.957-0.005c-14.53-0.099-24.572-9.92-24.748-24.379
	c-0.178-14.65-0.168-29.306-0.002-43.955c0.159-14.07,9.691-23.999,23.752-24.314c15.144-0.34,30.309-0.369,45.45,0.022
	c13.828,0.357,23.17,10.184,23.51,24.042C147.797,86.321,147.646,93.817,147.65,101.309z M131.691,100.926
	c-0.006-16.422-13.702-30.161-30.191-30.285c-16.7-0.127-30.637,13.639-30.678,30.3c-0.042,16.726,13.727,30.535,30.44,30.533
	C117.971,131.471,131.696,117.693,131.691,100.926z M139.678,70.337c-0.051-3.481-3.348-6.647-6.787-6.519
	c-3.566,0.135-6.476,3.306-6.229,6.965c0.264,3.944,2.695,5.947,6.428,6.19C136.592,77.202,139.73,73.854,139.678,70.337z"/>
<path fill-rule="evenodd" clip-rule="evenodd" fill="#FFFFFF" d="M101.027,82.529c10.398-0.096,18.753,8.164,18.749,18.538
	c-0.003,10.169-8.149,18.408-18.294,18.503c-10.188,0.096-18.564-7.968-18.746-18.049C82.548,91.08,90.691,82.625,101.027,82.529z"
	/>
</svg>
