<?xml version="1.0" encoding="utf-8"?>
<!-- Generator: Adobe Illustrator 16.0.0, SVG Export Plug-In . SVG Version: 6.00 Build 0)  -->
<!DOCTYPE svg PUBLIC "-//W3C//DTD SVG 1.1//EN" "http://www.w3.org/Graphics/SVG/1.1/DTD/svg11.dtd">
<svg version="1.1" id="Layer_1" xmlns="http://www.w3.org/2000/svg" xmlns:xlink="http://www.w3.org/1999/xlink" x="0px" y="0px"
	 width="1465.688px" height="1464.882px" viewBox="0 0 1465.688 1464.882" enable-background="new 0 0 1465.688 1464.882"
	 xml:space="preserve">
<path fill-rule="evenodd" clip-rule="evenodd" fill="#FFFFFF" d="M1465.688,734.96c-3.393,203.583-76.016,380.868-224.496,524.234
	c-148.447,143.332-328.215,212.168-534.25,205.208c-198.994-6.723-369.075-83.789-506.075-228.413
	C63.974,1091.479-2.905,917.629,0.097,718.693C6.103,320.583,336.377-10.589,750.334,0.259
	c198.254,5.196,367.919,79.145,506.377,220.772C1395.183,362.673,1462.634,534.537,1465.688,734.96z M778.068,227.917
	c-15.003-0.098-34.423,0.998-53.824,2.999c-40.929,4.221-80.812,12.927-119.406,27.249c-55.725,20.68-105.238,51.298-147.601,93.13
	c-36.216,35.763-64.456,77.034-84.523,123.851c-16.481,38.45-26.461,78.506-28.686,120.301c-1.321,24.814-0.111,49.585,3.659,74.216
	c5.261,34.363,14.923,67.247,32.196,97.604c20.292,35.663,48.514,62.753,86.308,79.479c18.337,8.115,30.477,2.388,35.36-16.896
	c4.086-16.132,8.067-32.294,12.475-48.339c3.041-11.069,1.043-20.632-6.541-29.239c-19.207-21.8-32.239-46.849-38.481-75.238
	c-5.769-26.24-6.224-52.758-3.521-79.442c5.246-51.796,22.387-99.191,52.355-141.771c26.767-38.028,61.015-67.671,102.435-88.798
	c36.169-18.448,74.655-28.849,115.123-32.296c36.763-3.132,73.142-1.281,109.129,7.025c40.834,9.424,77.78,26.676,108.639,55.466
	c45.62,42.564,66.299,96.418,69.339,157.669c1.745,35.176-1.105,70.188-6.738,104.956c-7.889,48.685-21.749,95.423-46.208,138.536
	c-18.77,33.085-42.35,61.966-76.265,80.644c-32.338,17.809-66.433,23.206-102.076,11.015
	c-43.581-14.907-69.049-57.204-61.937-102.535c3.156-20.112,9.395-39.477,15.071-58.961c11.405-39.146,24.881-77.692,33.954-117.512
	c5.801-25.457,9.927-51.047,4.473-77.121c-4.738-22.651-14.676-42.449-35.104-54.736c-28.44-17.104-58.202-16.45-87.478-2.523
	c-30.808,14.655-49.727,40.536-62.368,71.303c-11.69,28.451-15.707,58.209-14.361,88.931c1.253,28.574,6.62,56.151,17.406,82.62
	c1.36,3.337,1.458,6.324,0.673,9.615c-5.208,21.846-10.418,43.691-15.584,65.547c-13.357,56.516-26.694,113.037-40.037,169.557
	c-7.875,33.358-15.961,66.669-23.559,100.091c-7.71,33.912-10.052,68.47-10.283,103.11c-0.203,30.287,1.566,60.545,4.924,90.669
	c1.308,11.734,3.088,23.417,4.737,35.11c0.62,4.396,3.298,6.72,7.753,6.991c3.762,0.229,6.175-1.814,8.336-4.591
	c11.359-14.597,22.342-29.464,32.718-44.778c25.096-37.04,47.409-75.584,64.324-117.138c12.485-30.674,19.316-62.968,27.693-94.811
	c9.313-35.4,18.078-70.945,27.075-106.428c0.318-1.256,0.14-3.086,1.631-3.336c1.843-0.309,2.159,1.736,2.917,2.936
	c4.019,6.36,8.563,12.321,13.894,17.627c29.567,29.431,65.769,45.35,106.538,51.39c28.794,4.266,57.46,1.831,85.896-3.692
	c54.536-10.594,102.071-35.17,142.797-72.734c53.134-49.012,86.393-110.159,107.256-178.579
	c10.562-34.634,17.23-70.08,20.412-106.176c2.766-31.379,4.207-62.742,0.862-94.189c-4.058-38.147-14.662-74.378-31.28-108.886
	c-20.96-43.524-49.956-80.924-86.271-112.697c-34.219-29.94-72.777-52.668-115.242-68.755
	C888.652,236.265,836.388,227.59,778.068,227.917z"/>
</svg>
